solid OpenSCAD_Model
  facet normal -1 0 0
    outer loop
      vertex 0 11 0
      vertex 0 11 3.5
      vertex 0 48 0
    endloop
  endfacet
  facet normal -1 0 0
    outer loop
      vertex 0 48 0
      vertex 0 11 3.5
      vertex 0 48 3.5
    endloop
  endfacet
  facet normal -0.994522 -0.104528 0
    outer loop
      vertex 0 11 0
      vertex 0.240376 8.71297 0
      vertex 0 11 3.5
    endloop
  endfacet
  facet normal -0.994522 -0.104528 0
    outer loop
      vertex 0 11 3.5
      vertex 0.240376 8.71297 0
      vertex 0.240376 8.71297 3.5
    endloop
  endfacet
  facet normal 0 0 -1
    outer loop
      vertex 0 11 0
      vertex 0 48 0
      vertex 0.240376 8.71297 0
    endloop
  endfacet
  facet normal 0 0 -1
    outer loop
      vertex 0.240376 8.71297 0
      vertex 0 48 0
      vertex 0.240376 50.287 0
    endloop
  endfacet
  facet normal 0 0 -1
    outer loop
      vertex 0.240376 8.71297 0
      vertex 0.240376 50.287 0
      vertex 0.951 52.4741 0
    endloop
  endfacet
  facet normal 0 0 -1
    outer loop
      vertex 0.240376 8.71297 0
      vertex 0.951 52.4741 0
      vertex 2.10081 54.4656 0
    endloop
  endfacet
  facet normal 0 0 -1
    outer loop
      vertex 0.240376 8.71297 0
      vertex 2.10081 54.4656 0
      vertex 3.63956 56.1746 0
    endloop
  endfacet
  facet normal 0 0 -1
    outer loop
      vertex 0.240376 8.71297 0
      vertex 3.63956 56.1746 0
      vertex 5.5 57.5263 0
    endloop
  endfacet
  facet normal 0 0 -1
    outer loop
      vertex 0.240376 8.71297 0
      vertex 5.5 57.5263 0
      vertex 7.60081 58.4616 0
    endloop
  endfacet
  facet normal 0 0 -1
    outer loop
      vertex 7.11623 48.9573 0
      vertex 7.60081 58.4616 0
      vertex 9.85019 58.9397 0
    endloop
  endfacet
  facet normal 0 0 -1
    outer loop
      vertex 44.1162 10.0427 0
      vertex 15 11 0
      vertex 14.5418 12.8589 0
    endloop
  endfacet
  facet normal 0 0 -1
    outer loop
      vertex 11 58.9397 0
      vertex 11 59 0
      vertex 48 59 0
    endloop
  endfacet
  facet normal 0 0 -1
    outer loop
      vertex 13.2723 44.7081 0
      vertex 48 59 0
      vertex 0.240376 8.71297 0
    endloop
  endfacet
  facet normal 0 0 -1
    outer loop
      vertex 0.240376 8.71297 0
      vertex 48 59 0
      vertex 48 58.9397 0
    endloop
  endfacet
  facet normal 0 0 -1
    outer loop
      vertex 0.240376 8.71297 0
      vertex 48 58.9397 0
      vertex 49.1498 58.9397 0
    endloop
  endfacet
  facet normal 0 0 -1
    outer loop
      vertex 0.240376 8.71297 0
      vertex 49.1498 58.9397 0
      vertex 51.3992 58.4616 0
    endloop
  endfacet
  facet normal 0 0 -1
    outer loop
      vertex 46.5816 51.7401 0
      vertex 51.3992 58.4616 0
      vertex 53.5 57.5263 0
    endloop
  endfacet
  facet normal 0 0 -1
    outer loop
      vertex 48.4821 51.9708 0
      vertex 55.3604 56.1746 0
      vertex 50.2723 51.2919 0
    endloop
  endfacet
  facet normal 0 0 -1
    outer loop
      vertex 50.2723 51.2919 0
      vertex 56.8992 54.4656 0
      vertex 51.5418 49.8589 0
    endloop
  endfacet
  facet normal 0 0 -1
    outer loop
      vertex 51.5418 46.1411 0
      vertex 58.049 52.4741 0
      vertex 58.7596 50.287 0
    endloop
  endfacet
  facet normal 0 0 -1
    outer loop
      vertex 0.240376 8.71297 0
      vertex 58.7596 50.287 0
      vertex 59 48 0
    endloop
  endfacet
  facet normal 0 0 -1
    outer loop
      vertex 51.5418 12.8589 0
      vertex 59 48 0
      vertex 59 11 0
    endloop
  endfacet
  facet normal 0 0 -1
    outer loop
      vertex 50.2723 7.70806 0
      vertex 58.7596 8.71297 0
      vertex 58.049 6.5259 0
    endloop
  endfacet
  facet normal 0 0 -1
    outer loop
      vertex 13.2723 7.70806 0
      vertex 56.8992 4.53436 0
      vertex 55.3604 2.82541 0
    endloop
  endfacet
  facet normal 0 0 -1
    outer loop
      vertex 14.5418 9.14111 0
      vertex 56.8992 4.53436 0
      vertex 13.2723 7.70806 0
    endloop
  endfacet
  facet normal 0 0 -1
    outer loop
      vertex 9.58158 7.25993 0
      vertex 53.5 1.47372 0
      vertex 51.3992 0.538378 0
    endloop
  endfacet
  facet normal 0 0 -1
    outer loop
      vertex 0.240376 8.71297 0
      vertex 51.3992 0.538378 0
      vertex 49.1498 0.060259 0
    endloop
  endfacet
  facet normal 0 0 -1
    outer loop
      vertex 0.240376 8.71297 0
      vertex 49.1498 0.060259 0
      vertex 48 0.060259 0
    endloop
  endfacet
  facet normal 0 0 -1
    outer loop
      vertex 0.240376 8.71297 0
      vertex 48 0.060259 0
      vertex 48 0 0
    endloop
  endfacet
  facet normal 0 0 -1
    outer loop
      vertex 11 0.060259 0
      vertex 48 0 0
      vertex 11 0 0
    endloop
  endfacet
  facet normal 0 0 -1
    outer loop
      vertex 0.240376 8.71297 0
      vertex 48 0 0
      vertex 11 0.060259 0
    endloop
  endfacet
  facet normal 0 0 -1
    outer loop
      vertex 8.00596 8.34751 0
      vertex 0.240376 8.71297 0
      vertex 7.11623 10.0427 0
    endloop
  endfacet
  facet normal 0 0 -1
    outer loop
      vertex 0.240376 8.71297 0
      vertex 9.85019 0.060259 0
      vertex 7.60081 0.538378 0
    endloop
  endfacet
  facet normal 0 0 -1
    outer loop
      vertex 0.240376 8.71297 0
      vertex 7.60081 0.538378 0
      vertex 5.5 1.47372 0
    endloop
  endfacet
  facet normal 0 0 -1
    outer loop
      vertex 0.240376 8.71297 0
      vertex 5.5 1.47372 0
      vertex 3.63956 2.82541 0
    endloop
  endfacet
  facet normal 0 0 -1
    outer loop
      vertex 0.240376 8.71297 0
      vertex 3.63956 2.82541 0
      vertex 2.10081 4.53436 0
    endloop
  endfacet
  facet normal 0 0 -1
    outer loop
      vertex 0.240376 8.71297 0
      vertex 2.10081 4.53436 0
      vertex 0.951 6.5259 0
    endloop
  endfacet
  facet normal 0 0 -1
    outer loop
      vertex 7.11623 48.9573 0
      vertex 9.85019 58.9397 0
      vertex 8.00596 50.6525 0
    endloop
  endfacet
  facet normal 0 0 -1
    outer loop
      vertex 0.240376 8.71297 0
      vertex 7.11623 11.9573 0
      vertex 7.11623 10.0427 0
    endloop
  endfacet
  facet normal 0 0 -1
    outer loop
      vertex 9.58158 7.25993 0
      vertex 0.240376 8.71297 0
      vertex 8.00596 8.34751 0
    endloop
  endfacet
  facet normal 0 0 -1
    outer loop
      vertex 11.4821 7.02916 0
      vertex 53.5 1.47372 0
      vertex 9.58158 7.25993 0
    endloop
  endfacet
  facet normal 0 0 -1
    outer loop
      vertex 0.240376 8.71297 0
      vertex 9.58158 7.25993 0
      vertex 51.3992 0.538378 0
    endloop
  endfacet
  facet normal 0 0 -1
    outer loop
      vertex 13.2723 7.70806 0
      vertex 53.5 1.47372 0
      vertex 11.4821 7.02916 0
    endloop
  endfacet
  facet normal 0 0 -1
    outer loop
      vertex 51.5418 12.8589 0
      vertex 59 11 0
      vertex 52 11 0
    endloop
  endfacet
  facet normal 0 0 -1
    outer loop
      vertex 13.2723 14.2919 0
      vertex 59 48 0
      vertex 14.5418 12.8589 0
    endloop
  endfacet
  facet normal 0 0 -1
    outer loop
      vertex 9.58158 14.7401 0
      vertex 59 48 0
      vertex 11.4821 14.9708 0
    endloop
  endfacet
  facet normal 0 0 -1
    outer loop
      vertex 11.4821 14.9708 0
      vertex 59 48 0
      vertex 13.2723 14.2919 0
    endloop
  endfacet
  facet normal 0 0 -1
    outer loop
      vertex 0.240376 8.71297 0
      vertex 59 48 0
      vertex 9.58158 14.7401 0
    endloop
  endfacet
  facet normal 0 0 -1
    outer loop
      vertex 0.240376 8.71297 0
      vertex 9.58158 14.7401 0
      vertex 8.00596 13.6525 0
    endloop
  endfacet
  facet normal 0 0 -1
    outer loop
      vertex 0.240376 8.71297 0
      vertex 8.00596 13.6525 0
      vertex 7.11623 11.9573 0
    endloop
  endfacet
  facet normal 0 0 -1
    outer loop
      vertex 0.240376 8.71297 0
      vertex 7.60081 58.4616 0
      vertex 7.11623 48.9573 0
    endloop
  endfacet
  facet normal 0 0 -1
    outer loop
      vertex 8.00596 45.3475 0
      vertex 0.240376 8.71297 0
      vertex 7.11623 47.0427 0
    endloop
  endfacet
  facet normal 0 0 -1
    outer loop
      vertex 0.240376 8.71297 0
      vertex 7.11623 48.9573 0
      vertex 7.11623 47.0427 0
    endloop
  endfacet
  facet normal 0 0 -1
    outer loop
      vertex 44.1162 10.0427 0
      vertex 14.5418 9.14111 0
      vertex 15 11 0
    endloop
  endfacet
  facet normal 0 0 -1
    outer loop
      vertex 9.58158 44.2599 0
      vertex 0.240376 8.71297 0
      vertex 8.00596 45.3475 0
    endloop
  endfacet
  facet normal 0 0 -1
    outer loop
      vertex 13.2723 51.2919 0
      vertex 11 58.9397 0
      vertex 14.5418 49.8589 0
    endloop
  endfacet
  facet normal 0 0 -1
    outer loop
      vertex 14.5418 46.1411 0
      vertex 48 59 0
      vertex 13.2723 44.7081 0
    endloop
  endfacet
  facet normal 0 0 -1
    outer loop
      vertex 15 48 0
      vertex 48 59 0
      vertex 14.5418 46.1411 0
    endloop
  endfacet
  facet normal 0 0 -1
    outer loop
      vertex 9.58158 44.2599 0
      vertex 11.4821 44.0292 0
      vertex 0.240376 8.71297 0
    endloop
  endfacet
  facet normal 0 0 -1
    outer loop
      vertex 11.4821 44.0292 0
      vertex 13.2723 44.7081 0
      vertex 0.240376 8.71297 0
    endloop
  endfacet
  facet normal 0 0 -1
    outer loop
      vertex 14.5418 49.8589 0
      vertex 48 59 0
      vertex 15 48 0
    endloop
  endfacet
  facet normal 0 0 -1
    outer loop
      vertex 11 58.9397 0
      vertex 48 59 0
      vertex 14.5418 49.8589 0
    endloop
  endfacet
  facet normal 0 0 -1
    outer loop
      vertex 9.58158 51.7401 0
      vertex 11 58.9397 0
      vertex 11.4821 51.9708 0
    endloop
  endfacet
  facet normal 0 0 -1
    outer loop
      vertex 11 58.9397 0
      vertex 13.2723 51.2919 0
      vertex 11.4821 51.9708 0
    endloop
  endfacet
  facet normal 0 0 -1
    outer loop
      vertex 8.00596 50.6525 0
      vertex 11 58.9397 0
      vertex 9.58158 51.7401 0
    endloop
  endfacet
  facet normal 0 0 -1
    outer loop
      vertex 8.00596 50.6525 0
      vertex 9.85019 58.9397 0
      vertex 11 58.9397 0
    endloop
  endfacet
  facet normal 0 0 -1
    outer loop
      vertex 44.1162 10.0427 0
      vertex 14.5418 12.8589 0
      vertex 44.1162 11.9573 0
    endloop
  endfacet
  facet normal 0 0 -1
    outer loop
      vertex 14.5418 12.8589 0
      vertex 59 48 0
      vertex 44.1162 11.9573 0
    endloop
  endfacet
  facet normal 0 0 -1
    outer loop
      vertex 45.006 8.34751 0
      vertex 14.5418 9.14111 0
      vertex 44.1162 10.0427 0
    endloop
  endfacet
  facet normal 0 0 -1
    outer loop
      vertex 14.5418 9.14111 0
      vertex 48.4821 7.02916 0
      vertex 56.8992 4.53436 0
    endloop
  endfacet
  facet normal 0 0 -1
    outer loop
      vertex 48.4821 7.02916 0
      vertex 58.049 6.5259 0
      vertex 56.8992 4.53436 0
    endloop
  endfacet
  facet normal 0 0 -1
    outer loop
      vertex 13.2723 7.70806 0
      vertex 55.3604 2.82541 0
      vertex 53.5 1.47372 0
    endloop
  endfacet
  facet normal 0 0 -1
    outer loop
      vertex 52 11 0
      vertex 58.7596 8.71297 0
      vertex 51.5418 9.14111 0
    endloop
  endfacet
  facet normal 0 0 -1
    outer loop
      vertex 51.5418 9.14111 0
      vertex 58.7596 8.71297 0
      vertex 50.2723 7.70806 0
    endloop
  endfacet
  facet normal 0 0 -1
    outer loop
      vertex 50.2723 14.2919 0
      vertex 59 48 0
      vertex 51.5418 12.8589 0
    endloop
  endfacet
  facet normal 0 0 -1
    outer loop
      vertex 44.1162 47.0427 0
      vertex 0.240376 8.71297 0
      vertex 44.1162 48.9573 0
    endloop
  endfacet
  facet normal 0 0 -1
    outer loop
      vertex 48.4821 14.9708 0
      vertex 59 48 0
      vertex 50.2723 14.2919 0
    endloop
  endfacet
  facet normal 0 0 -1
    outer loop
      vertex 46.5816 14.7401 0
      vertex 59 48 0
      vertex 48.4821 14.9708 0
    endloop
  endfacet
  facet normal 0 0 -1
    outer loop
      vertex 45.006 13.6525 0
      vertex 59 48 0
      vertex 46.5816 14.7401 0
    endloop
  endfacet
  facet normal 0 0 -1
    outer loop
      vertex 44.1162 11.9573 0
      vertex 59 48 0
      vertex 45.006 13.6525 0
    endloop
  endfacet
  facet normal 0 0 -1
    outer loop
      vertex 46.5816 51.7401 0
      vertex 53.5 57.5263 0
      vertex 48.4821 51.9708 0
    endloop
  endfacet
  facet normal 0 0 -1
    outer loop
      vertex 48.4821 51.9708 0
      vertex 53.5 57.5263 0
      vertex 55.3604 56.1746 0
    endloop
  endfacet
  facet normal 0 0 -1
    outer loop
      vertex 50.2723 51.2919 0
      vertex 55.3604 56.1746 0
      vertex 56.8992 54.4656 0
    endloop
  endfacet
  facet normal 0 0 -1
    outer loop
      vertex 51.5418 46.1411 0
      vertex 58.7596 50.287 0
      vertex 50.2723 44.7081 0
    endloop
  endfacet
  facet normal 0 0 -1
    outer loop
      vertex 0.240376 8.71297 0
      vertex 48.4821 44.0292 0
      vertex 50.2723 44.7081 0
    endloop
  endfacet
  facet normal 0 0 -1
    outer loop
      vertex 0.240376 8.71297 0
      vertex 50.2723 44.7081 0
      vertex 58.7596 50.287 0
    endloop
  endfacet
  facet normal 0 0 -1
    outer loop
      vertex 51.5418 49.8589 0
      vertex 58.049 52.4741 0
      vertex 52 48 0
    endloop
  endfacet
  facet normal 0 0 -1
    outer loop
      vertex 52 48 0
      vertex 58.049 52.4741 0
      vertex 51.5418 46.1411 0
    endloop
  endfacet
  facet normal 0 0 -1
    outer loop
      vertex 51.5418 49.8589 0
      vertex 56.8992 54.4656 0
      vertex 58.049 52.4741 0
    endloop
  endfacet
  facet normal 0 0 -1
    outer loop
      vertex 48.4821 44.0292 0
      vertex 0.240376 8.71297 0
      vertex 46.5816 44.2599 0
    endloop
  endfacet
  facet normal 0 0 -1
    outer loop
      vertex 46.5816 44.2599 0
      vertex 0.240376 8.71297 0
      vertex 45.006 45.3475 0
    endloop
  endfacet
  facet normal 0 0 -1
    outer loop
      vertex 45.006 45.3475 0
      vertex 0.240376 8.71297 0
      vertex 44.1162 47.0427 0
    endloop
  endfacet
  facet normal 0 0 -1
    outer loop
      vertex 45.006 50.6525 0
      vertex 51.3992 58.4616 0
      vertex 46.5816 51.7401 0
    endloop
  endfacet
  facet normal 0 0 -1
    outer loop
      vertex 0.240376 8.71297 0
      vertex 51.3992 58.4616 0
      vertex 45.006 50.6525 0
    endloop
  endfacet
  facet normal 0 0 -1
    outer loop
      vertex 0.240376 8.71297 0
      vertex 45.006 50.6525 0
      vertex 44.1162 48.9573 0
    endloop
  endfacet
  facet normal 0 0 -1
    outer loop
      vertex 9.85019 0.060259 0
      vertex 0.240376 8.71297 0
      vertex 11 0.060259 0
    endloop
  endfacet
  facet normal 0 0 -1
    outer loop
      vertex 50.2723 7.70806 0
      vertex 58.049 6.5259 0
      vertex 48.4821 7.02916 0
    endloop
  endfacet
  facet normal 0 0 -1
    outer loop
      vertex 14.5418 9.14111 0
      vertex 45.006 8.34751 0
      vertex 46.5816 7.25993 0
    endloop
  endfacet
  facet normal 0 0 -1
    outer loop
      vertex 14.5418 9.14111 0
      vertex 46.5816 7.25993 0
      vertex 48.4821 7.02916 0
    endloop
  endfacet
  facet normal 0 0 -1
    outer loop
      vertex 52 11 0
      vertex 59 11 0
      vertex 58.7596 8.71297 0
    endloop
  endfacet
  facet normal -0.994522 0.104528 0
    outer loop
      vertex 0 48 0
      vertex 0 48 3.5
      vertex 0.240376 50.287 0
    endloop
  endfacet
  facet normal -0.994522 0.104528 0
    outer loop
      vertex 0.240376 50.287 0
      vertex 0 48 3.5
      vertex 0.240376 50.287 3.5
    endloop
  endfacet
  facet normal 0 0 1
    outer loop
      vertex 0 48 3.5
      vertex 0 11 3.5
      vertex 0.240376 8.71297 3.5
    endloop
  endfacet
  facet normal 0 0 1
    outer loop
      vertex 2.10081 4.53436 3.5
      vertex 0 48 3.5
      vertex 0.951 6.5259 3.5
    endloop
  endfacet
  facet normal 0 0 1
    outer loop
      vertex 0.951 6.5259 3.5
      vertex 0 48 3.5
      vertex 0.240376 8.71297 3.5
    endloop
  endfacet
  facet normal 0 0 1
    outer loop
      vertex 3.63956 2.82541 3.5
      vertex 0 48 3.5
      vertex 2.10081 4.53436 3.5
    endloop
  endfacet
  facet normal 0 0 1
    outer loop
      vertex 5.5 1.47372 3.5
      vertex 0 48 3.5
      vertex 3.63956 2.82541 3.5
    endloop
  endfacet
  facet normal 0 0 1
    outer loop
      vertex 7.60081 0.538378 3.5
      vertex 0 48 3.5
      vertex 5.5 1.47372 3.5
    endloop
  endfacet
  facet normal 0 0 1
    outer loop
      vertex 7.11623 10.0427 3.5
      vertex 0 48 3.5
      vertex 7.60081 0.538378 3.5
    endloop
  endfacet
  facet normal 0 0 1
    outer loop
      vertex 25.5 0 3.5
      vertex 11 0.060259 3.5
      vertex 11 0 3.5
    endloop
  endfacet
  facet normal 0 0 1
    outer loop
      vertex 25.5 15 3.5
      vertex 0 48 3.5
      vertex 25.5 0 3.5
    endloop
  endfacet
  facet normal 0 0 1
    outer loop
      vertex 33.5 15 3.5
      vertex 0 48 3.5
      vertex 25.5 15 3.5
    endloop
  endfacet
  facet normal 0 0 1
    outer loop
      vertex 49.1498 0.060259 3.5
      vertex 0 48 3.5
      vertex 33.5 15 3.5
    endloop
  endfacet
  facet normal 0 0 1
    outer loop
      vertex 48 0 3.5
      vertex 33.5 15 3.5
      vertex 33.5 0 3.5
    endloop
  endfacet
  facet normal 0 0 1
    outer loop
      vertex 48 0.060259 3.5
      vertex 33.5 15 3.5
      vertex 48 0 3.5
    endloop
  endfacet
  facet normal 0 0 1
    outer loop
      vertex 49.1498 0.060259 3.5
      vertex 33.5 15 3.5
      vertex 48 0.060259 3.5
    endloop
  endfacet
  facet normal 0 0 1
    outer loop
      vertex 51.3992 0.538378 3.5
      vertex 0 48 3.5
      vertex 49.1498 0.060259 3.5
    endloop
  endfacet
  facet normal 0 0 1
    outer loop
      vertex 45.006 8.34751 3.5
      vertex 0 48 3.5
      vertex 51.3992 0.538378 3.5
    endloop
  endfacet
  facet normal 0 0 1
    outer loop
      vertex 52 11 3.5
      vertex 51.5418 9.14111 3.5
      vertex 58.049 6.5259 3.5
    endloop
  endfacet
  facet normal 0 0 1
    outer loop
      vertex 51.5418 9.14111 3.5
      vertex 50.2723 7.70806 3.5
      vertex 56.8992 4.53436 3.5
    endloop
  endfacet
  facet normal 0 0 1
    outer loop
      vertex 59 11 3.5
      vertex 0 48 3.5
      vertex 58.7596 8.71297 3.5
    endloop
  endfacet
  facet normal 0 0 1
    outer loop
      vertex 9.58158 44.2599 3.5
      vertex 0 48 3.5
      vertex 59 11 3.5
    endloop
  endfacet
  facet normal 0 0 1
    outer loop
      vertex 14.5418 49.8589 3.5
      vertex 46.5816 51.7401 3.5
      vertex 56.8992 54.4656 3.5
    endloop
  endfacet
  facet normal 0 0 1
    outer loop
      vertex 13.2723 51.2919 3.5
      vertex 55.3604 56.1746 3.5
      vertex 53.5 57.5263 3.5
    endloop
  endfacet
  facet normal 0 0 1
    outer loop
      vertex 13.2723 51.2919 3.5
      vertex 51.3992 58.4616 3.5
      vertex 49.1498 58.9397 3.5
    endloop
  endfacet
  facet normal 0 0 1
    outer loop
      vertex 13.2723 51.2919 3.5
      vertex 48 58.9397 3.5
      vertex 48 59 3.5
    endloop
  endfacet
  facet normal 0 0 1
    outer loop
      vertex 14.5418 49.8589 3.5
      vertex 45.006 50.6525 3.5
      vertex 46.5816 51.7401 3.5
    endloop
  endfacet
  facet normal 0 0 1
    outer loop
      vertex 13.2723 51.2919 3.5
      vertex 14.5418 49.8589 3.5
      vertex 55.3604 56.1746 3.5
    endloop
  endfacet
  facet normal 0 0 1
    outer loop
      vertex 11.4821 51.9708 3.5
      vertex 13.2723 51.2919 3.5
      vertex 48 59 3.5
    endloop
  endfacet
  facet normal 0 0 1
    outer loop
      vertex 11 59 3.5
      vertex 11 58.9397 3.5
      vertex 48 59 3.5
    endloop
  endfacet
  facet normal 0 0 1
    outer loop
      vertex 8.00596 8.34751 3.5
      vertex 7.11623 10.0427 3.5
      vertex 9.85019 0.060259 3.5
    endloop
  endfacet
  facet normal 0 0 1
    outer loop
      vertex 7.60081 58.4616 3.5
      vertex 0 48 3.5
      vertex 9.85019 58.9397 3.5
    endloop
  endfacet
  facet normal 0 0 1
    outer loop
      vertex 5.5 57.5263 3.5
      vertex 0 48 3.5
      vertex 7.60081 58.4616 3.5
    endloop
  endfacet
  facet normal 0 0 1
    outer loop
      vertex 3.63956 56.1746 3.5
      vertex 0 48 3.5
      vertex 5.5 57.5263 3.5
    endloop
  endfacet
  facet normal 0 0 1
    outer loop
      vertex 2.10081 54.4656 3.5
      vertex 0 48 3.5
      vertex 3.63956 56.1746 3.5
    endloop
  endfacet
  facet normal 0 0 1
    outer loop
      vertex 0.951 52.4741 3.5
      vertex 0 48 3.5
      vertex 2.10081 54.4656 3.5
    endloop
  endfacet
  facet normal 0 0 1
    outer loop
      vertex 0.240376 50.287 3.5
      vertex 0 48 3.5
      vertex 0.951 52.4741 3.5
    endloop
  endfacet
  facet normal 0 0 1
    outer loop
      vertex 9.85019 0.060259 3.5
      vertex 7.11623 10.0427 3.5
      vertex 7.60081 0.538378 3.5
    endloop
  endfacet
  facet normal 0 0 1
    outer loop
      vertex 7.11623 11.9573 3.5
      vertex 0 48 3.5
      vertex 7.11623 10.0427 3.5
    endloop
  endfacet
  facet normal 0 0 1
    outer loop
      vertex 44.1162 11.9573 3.5
      vertex 45.006 13.6525 3.5
      vertex 0 48 3.5
    endloop
  endfacet
  facet normal 0 0 1
    outer loop
      vertex 44.1162 48.9573 3.5
      vertex 14.5418 49.8589 3.5
      vertex 15 48 3.5
    endloop
  endfacet
  facet normal 0 0 1
    outer loop
      vertex 9.58158 14.7401 3.5
      vertex 0 48 3.5
      vertex 8.00596 13.6525 3.5
    endloop
  endfacet
  facet normal 0 0 1
    outer loop
      vertex 11.4821 14.9708 3.5
      vertex 0 48 3.5
      vertex 9.58158 14.7401 3.5
    endloop
  endfacet
  facet normal 0 0 1
    outer loop
      vertex 13.2723 14.2919 3.5
      vertex 0 48 3.5
      vertex 11.4821 14.9708 3.5
    endloop
  endfacet
  facet normal 0 0 1
    outer loop
      vertex 15 11 3.5
      vertex 14.5418 9.14111 3.5
      vertex 25.5 0 3.5
    endloop
  endfacet
  facet normal 0 0 1
    outer loop
      vertex 14.5418 12.8589 3.5
      vertex 0 48 3.5
      vertex 13.2723 14.2919 3.5
    endloop
  endfacet
  facet normal 0 0 1
    outer loop
      vertex 9.58158 7.25993 3.5
      vertex 8.00596 8.34751 3.5
      vertex 9.85019 0.060259 3.5
    endloop
  endfacet
  facet normal 0 0 1
    outer loop
      vertex 25.5 0 3.5
      vertex 0 48 3.5
      vertex 14.5418 12.8589 3.5
    endloop
  endfacet
  facet normal 0 0 1
    outer loop
      vertex 14.5418 9.14111 3.5
      vertex 13.2723 7.70806 3.5
      vertex 25.5 0 3.5
    endloop
  endfacet
  facet normal 0 0 1
    outer loop
      vertex 9.58158 7.25993 3.5
      vertex 9.85019 0.060259 3.5
      vertex 11 0.060259 3.5
    endloop
  endfacet
  facet normal 0 0 1
    outer loop
      vertex 25.5 0 3.5
      vertex 13.2723 7.70806 3.5
      vertex 11 0.060259 3.5
    endloop
  endfacet
  facet normal 0 0 1
    outer loop
      vertex 13.2723 7.70806 3.5
      vertex 11.4821 7.02916 3.5
      vertex 11 0.060259 3.5
    endloop
  endfacet
  facet normal 0 0 1
    outer loop
      vertex 11.4821 7.02916 3.5
      vertex 9.58158 7.25993 3.5
      vertex 11 0.060259 3.5
    endloop
  endfacet
  facet normal 0 0 1
    outer loop
      vertex 14.5418 12.8589 3.5
      vertex 15 11 3.5
      vertex 25.5 0 3.5
    endloop
  endfacet
  facet normal 0 0 1
    outer loop
      vertex 11.4821 44.0292 3.5
      vertex 9.58158 44.2599 3.5
      vertex 59 11 3.5
    endloop
  endfacet
  facet normal 0 0 1
    outer loop
      vertex 11 58.9397 3.5
      vertex 0 48 3.5
      vertex 8.00596 50.6525 3.5
    endloop
  endfacet
  facet normal 0 0 1
    outer loop
      vertex 11 58.9397 3.5
      vertex 9.58158 51.7401 3.5
      vertex 48 59 3.5
    endloop
  endfacet
  facet normal 0 0 1
    outer loop
      vertex 11 58.9397 3.5
      vertex 8.00596 50.6525 3.5
      vertex 9.58158 51.7401 3.5
    endloop
  endfacet
  facet normal 0 0 1
    outer loop
      vertex 9.58158 51.7401 3.5
      vertex 11.4821 51.9708 3.5
      vertex 48 59 3.5
    endloop
  endfacet
  facet normal 0 0 1
    outer loop
      vertex 55.3604 56.1746 3.5
      vertex 14.5418 49.8589 3.5
      vertex 56.8992 54.4656 3.5
    endloop
  endfacet
  facet normal 0 0 1
    outer loop
      vertex 45.006 8.34751 3.5
      vertex 44.1162 10.0427 3.5
      vertex 0 48 3.5
    endloop
  endfacet
  facet normal 0 0 1
    outer loop
      vertex 50.2723 51.2919 3.5
      vertex 51.5418 49.8589 3.5
      vertex 58.7596 50.287 3.5
    endloop
  endfacet
  facet normal 0 0 1
    outer loop
      vertex 44.1162 47.0427 3.5
      vertex 14.5418 46.1411 3.5
      vertex 59 11 3.5
    endloop
  endfacet
  facet normal 0 0 1
    outer loop
      vertex 14.5418 46.1411 3.5
      vertex 13.2723 44.7081 3.5
      vertex 59 11 3.5
    endloop
  endfacet
  facet normal 0 0 1
    outer loop
      vertex 13.2723 44.7081 3.5
      vertex 11.4821 44.0292 3.5
      vertex 59 11 3.5
    endloop
  endfacet
  facet normal 0 0 1
    outer loop
      vertex 8.00596 45.3475 3.5
      vertex 0 48 3.5
      vertex 9.58158 44.2599 3.5
    endloop
  endfacet
  facet normal 0 0 1
    outer loop
      vertex 7.11623 47.0427 3.5
      vertex 0 48 3.5
      vertex 8.00596 45.3475 3.5
    endloop
  endfacet
  facet normal 0 0 1
    outer loop
      vertex 44.1162 11.9573 3.5
      vertex 0 48 3.5
      vertex 44.1162 10.0427 3.5
    endloop
  endfacet
  facet normal 0 0 1
    outer loop
      vertex 48.4821 7.02916 3.5
      vertex 46.5816 7.25993 3.5
      vertex 53.5 1.47372 3.5
    endloop
  endfacet
  facet normal 0 0 1
    outer loop
      vertex 44.1162 47.0427 3.5
      vertex 44.1162 48.9573 3.5
      vertex 15 48 3.5
    endloop
  endfacet
  facet normal 0 0 1
    outer loop
      vertex 50.2723 14.2919 3.5
      vertex 51.5418 12.8589 3.5
      vertex 58.7596 8.71297 3.5
    endloop
  endfacet
  facet normal 0 0 1
    outer loop
      vertex 50.2723 7.70806 3.5
      vertex 48.4821 7.02916 3.5
      vertex 55.3604 2.82541 3.5
    endloop
  endfacet
  facet normal 0 0 1
    outer loop
      vertex 48.4821 14.9708 3.5
      vertex 0 48 3.5
      vertex 46.5816 14.7401 3.5
    endloop
  endfacet
  facet normal 0 0 1
    outer loop
      vertex 50.2723 14.2919 3.5
      vertex 0 48 3.5
      vertex 48.4821 14.9708 3.5
    endloop
  endfacet
  facet normal 0 0 1
    outer loop
      vertex 51.5418 12.8589 3.5
      vertex 52 11 3.5
      vertex 58.7596 8.71297 3.5
    endloop
  endfacet
  facet normal 0 0 1
    outer loop
      vertex 58.7596 8.71297 3.5
      vertex 0 48 3.5
      vertex 50.2723 14.2919 3.5
    endloop
  endfacet
  facet normal 0 0 1
    outer loop
      vertex 58.7596 8.71297 3.5
      vertex 52 11 3.5
      vertex 58.049 6.5259 3.5
    endloop
  endfacet
  facet normal 0 0 1
    outer loop
      vertex 58.049 6.5259 3.5
      vertex 51.5418 9.14111 3.5
      vertex 56.8992 4.53436 3.5
    endloop
  endfacet
  facet normal 0 0 1
    outer loop
      vertex 56.8992 4.53436 3.5
      vertex 50.2723 7.70806 3.5
      vertex 55.3604 2.82541 3.5
    endloop
  endfacet
  facet normal 0 0 1
    outer loop
      vertex 45.006 13.6525 3.5
      vertex 46.5816 14.7401 3.5
      vertex 0 48 3.5
    endloop
  endfacet
  facet normal 0 0 1
    outer loop
      vertex 55.3604 2.82541 3.5
      vertex 48.4821 7.02916 3.5
      vertex 53.5 1.47372 3.5
    endloop
  endfacet
  facet normal 0 0 1
    outer loop
      vertex 53.5 1.47372 3.5
      vertex 46.5816 7.25993 3.5
      vertex 51.3992 0.538378 3.5
    endloop
  endfacet
  facet normal 0 0 1
    outer loop
      vertex 44.1162 47.0427 3.5
      vertex 15 48 3.5
      vertex 14.5418 46.1411 3.5
    endloop
  endfacet
  facet normal 0 0 1
    outer loop
      vertex 46.5816 7.25993 3.5
      vertex 45.006 8.34751 3.5
      vertex 51.3992 0.538378 3.5
    endloop
  endfacet
  facet normal 0 0 1
    outer loop
      vertex 45.006 45.3475 3.5
      vertex 44.1162 47.0427 3.5
      vertex 59 11 3.5
    endloop
  endfacet
  facet normal 0 0 1
    outer loop
      vertex 44.1162 48.9573 3.5
      vertex 45.006 50.6525 3.5
      vertex 14.5418 49.8589 3.5
    endloop
  endfacet
  facet normal 0 0 1
    outer loop
      vertex 52 48 3.5
      vertex 51.5418 46.1411 3.5
      vertex 59 48 3.5
    endloop
  endfacet
  facet normal 0 0 1
    outer loop
      vertex 51.5418 49.8589 3.5
      vertex 59 48 3.5
      vertex 58.7596 50.287 3.5
    endloop
  endfacet
  facet normal 0 0 1
    outer loop
      vertex 13.2723 51.2919 3.5
      vertex 53.5 57.5263 3.5
      vertex 51.3992 58.4616 3.5
    endloop
  endfacet
  facet normal 0 0 1
    outer loop
      vertex 51.5418 49.8589 3.5
      vertex 52 48 3.5
      vertex 59 48 3.5
    endloop
  endfacet
  facet normal 0 0 1
    outer loop
      vertex 13.2723 51.2919 3.5
      vertex 49.1498 58.9397 3.5
      vertex 48 58.9397 3.5
    endloop
  endfacet
  facet normal 0 0 1
    outer loop
      vertex 56.8992 54.4656 3.5
      vertex 48.4821 51.9708 3.5
      vertex 58.049 52.4741 3.5
    endloop
  endfacet
  facet normal 0 0 1
    outer loop
      vertex 56.8992 54.4656 3.5
      vertex 46.5816 51.7401 3.5
      vertex 48.4821 51.9708 3.5
    endloop
  endfacet
  facet normal 0 0 1
    outer loop
      vertex 58.049 52.4741 3.5
      vertex 50.2723 51.2919 3.5
      vertex 58.7596 50.287 3.5
    endloop
  endfacet
  facet normal 0 0 1
    outer loop
      vertex 48.4821 51.9708 3.5
      vertex 50.2723 51.2919 3.5
      vertex 58.049 52.4741 3.5
    endloop
  endfacet
  facet normal 0 0 1
    outer loop
      vertex 59 48 3.5
      vertex 51.5418 46.1411 3.5
      vertex 59 11 3.5
    endloop
  endfacet
  facet normal 0 0 1
    outer loop
      vertex 51.5418 46.1411 3.5
      vertex 50.2723 44.7081 3.5
      vertex 59 11 3.5
    endloop
  endfacet
  facet normal 0 0 1
    outer loop
      vertex 50.2723 44.7081 3.5
      vertex 48.4821 44.0292 3.5
      vertex 59 11 3.5
    endloop
  endfacet
  facet normal 0 0 1
    outer loop
      vertex 48.4821 44.0292 3.5
      vertex 46.5816 44.2599 3.5
      vertex 59 11 3.5
    endloop
  endfacet
  facet normal 0 0 1
    outer loop
      vertex 46.5816 44.2599 3.5
      vertex 45.006 45.3475 3.5
      vertex 59 11 3.5
    endloop
  endfacet
  facet normal 0 0 1
    outer loop
      vertex 11 58.9397 3.5
      vertex 9.85019 58.9397 3.5
      vertex 0 48 3.5
    endloop
  endfacet
  facet normal 0 0 1
    outer loop
      vertex 7.11623 11.9573 3.5
      vertex 8.00596 13.6525 3.5
      vertex 0 48 3.5
    endloop
  endfacet
  facet normal 0 0 1
    outer loop
      vertex 7.11623 47.0427 3.5
      vertex 7.11623 48.9573 3.5
      vertex 0 48 3.5
    endloop
  endfacet
  facet normal 0 0 1
    outer loop
      vertex 7.11623 48.9573 3.5
      vertex 8.00596 50.6525 3.5
      vertex 0 48 3.5
    endloop
  endfacet
  facet normal -0.951056 -0.309017 0
    outer loop
      vertex 0.240376 8.71297 0
      vertex 0.951 6.5259 0
      vertex 0.240376 8.71297 3.5
    endloop
  endfacet
  facet normal -0.951056 -0.309017 0
    outer loop
      vertex 0.240376 8.71297 3.5
      vertex 0.951 6.5259 0
      vertex 0.951 6.5259 3.5
    endloop
  endfacet
  facet normal -0.866025 -0.5 0
    outer loop
      vertex 0.951 6.5259 0
      vertex 2.10081 4.53436 0
      vertex 0.951 6.5259 3.5
    endloop
  endfacet
  facet normal -0.866025 -0.5 0
    outer loop
      vertex 0.951 6.5259 3.5
      vertex 2.10081 4.53436 0
      vertex 2.10081 4.53436 3.5
    endloop
  endfacet
  facet normal -0.743145 -0.669131 0
    outer loop
      vertex 2.10081 4.53436 0
      vertex 3.63956 2.82541 0
      vertex 2.10081 4.53436 3.5
    endloop
  endfacet
  facet normal -0.743145 -0.669131 0
    outer loop
      vertex 2.10081 4.53436 3.5
      vertex 3.63956 2.82541 0
      vertex 3.63956 2.82541 3.5
    endloop
  endfacet
  facet normal -0.587785 -0.809017 0
    outer loop
      vertex 3.63956 2.82541 3.5
      vertex 3.63956 2.82541 0
      vertex 5.5 1.47372 0
    endloop
  endfacet
  facet normal -0.587785 -0.809017 0
    outer loop
      vertex 5.5 1.47372 3.5
      vertex 3.63956 2.82541 3.5
      vertex 5.5 1.47372 0
    endloop
  endfacet
  facet normal -0.406737 -0.913545 0
    outer loop
      vertex 5.5 1.47372 3.5
      vertex 5.5 1.47372 0
      vertex 7.60081 0.538378 0
    endloop
  endfacet
  facet normal -0.406737 -0.913545 0
    outer loop
      vertex 7.60081 0.538378 3.5
      vertex 5.5 1.47372 3.5
      vertex 7.60081 0.538378 0
    endloop
  endfacet
  facet normal -0.207912 -0.978148 0
    outer loop
      vertex 7.60081 0.538378 3.5
      vertex 7.60081 0.538378 0
      vertex 9.85019 0.060259 0
    endloop
  endfacet
  facet normal -0.207912 -0.978148 0
    outer loop
      vertex 9.85019 0.060259 3.5
      vertex 7.60081 0.538378 3.5
      vertex 9.85019 0.060259 0
    endloop
  endfacet
  facet normal 0 -1 0
    outer loop
      vertex 9.85019 0.060259 3.5
      vertex 9.85019 0.060259 0
      vertex 11 0.060259 0
    endloop
  endfacet
  facet normal 0 -1 0
    outer loop
      vertex 11 0.060259 3.5
      vertex 9.85019 0.060259 3.5
      vertex 11 0.060259 0
    endloop
  endfacet
  facet normal -1 0 0
    outer loop
      vertex 11 0.060259 3.5
      vertex 11 0.060259 0
      vertex 11 0 3.5
    endloop
  endfacet
  facet normal -1 0 0
    outer loop
      vertex 11 0 3.5
      vertex 11 0.060259 0
      vertex 11 0 0
    endloop
  endfacet
  facet normal 0 -1 0
    outer loop
      vertex 11 0 3.5
      vertex 11 0 0
      vertex 48 0 0
    endloop
  endfacet
  facet normal 0 -1 0
    outer loop
      vertex 25.5 0 3.5
      vertex 11 0 3.5
      vertex 48 0 0
    endloop
  endfacet
  facet normal 0 -1 0
    outer loop
      vertex 33.5 0 3.5
      vertex 25.5 0 3.5
      vertex 48 0 0
    endloop
  endfacet
  facet normal 0 -1 0
    outer loop
      vertex 48 0 3.5
      vertex 33.5 0 3.5
      vertex 48 0 0
    endloop
  endfacet
  facet normal 0 -1 0
    outer loop
      vertex 28.0816 0 7.75994
      vertex 25.5 0 3.5
      vertex 29.9821 0 7.52917
    endloop
  endfacet
  facet normal 0 -1 0
    outer loop
      vertex 33.5 0 11.5
      vertex 33.0418 0 9.64111
      vertex 33.5 0 3.5
    endloop
  endfacet
  facet normal 0 -1 0
    outer loop
      vertex 33.0418 0 9.64111
      vertex 31.7723 0 8.20807
      vertex 33.5 0 3.5
    endloop
  endfacet
  facet normal 0 -1 0
    outer loop
      vertex 31.7723 0 8.20807
      vertex 29.9821 0 7.52917
      vertex 33.5 0 3.5
    endloop
  endfacet
  facet normal 0 -1 0
    outer loop
      vertex 29.9821 0 7.52917
      vertex 25.5 0 3.5
      vertex 33.5 0 3.5
    endloop
  endfacet
  facet normal 0 -1 0
    outer loop
      vertex 25.5 0 11.5
      vertex 25.6162 0 10.5427
      vertex 25.6162 0 11.5
    endloop
  endfacet
  facet normal 0 -1 0
    outer loop
      vertex 26.506 0 8.84751
      vertex 25.5 0 3.5
      vertex 28.0816 0 7.75994
    endloop
  endfacet
  facet normal 0 -1 0
    outer loop
      vertex 25.6162 0 10.5427
      vertex 25.5 0 3.5
      vertex 26.506 0 8.84751
    endloop
  endfacet
  facet normal 0 -1 0
    outer loop
      vertex 25.5 0 11.5
      vertex 25.5 0 3.5
      vertex 25.6162 0 10.5427
    endloop
  endfacet
  facet normal 1 0 0
    outer loop
      vertex 48 0.060259 0
      vertex 48 0.060259 3.5
      vertex 48 0 3.5
    endloop
  endfacet
  facet normal 1 0 0
    outer loop
      vertex 48 0 0
      vertex 48 0.060259 0
      vertex 48 0 3.5
    endloop
  endfacet
  facet normal 0 -1 0
    outer loop
      vertex 48 0.060259 3.5
      vertex 48 0.060259 0
      vertex 49.1498 0.060259 0
    endloop
  endfacet
  facet normal 0 -1 0
    outer loop
      vertex 49.1498 0.060259 3.5
      vertex 48 0.060259 3.5
      vertex 49.1498 0.060259 0
    endloop
  endfacet
  facet normal 0.207912 -0.978148 0
    outer loop
      vertex 49.1498 0.060259 3.5
      vertex 49.1498 0.060259 0
      vertex 51.3992 0.538378 0
    endloop
  endfacet
  facet normal 0.207912 -0.978148 0
    outer loop
      vertex 51.3992 0.538378 3.5
      vertex 49.1498 0.060259 3.5
      vertex 51.3992 0.538378 0
    endloop
  endfacet
  facet normal 0.406737 -0.913545 0
    outer loop
      vertex 51.3992 0.538378 3.5
      vertex 51.3992 0.538378 0
      vertex 53.5 1.47372 0
    endloop
  endfacet
  facet normal 0.406737 -0.913545 0
    outer loop
      vertex 53.5 1.47372 3.5
      vertex 51.3992 0.538378 3.5
      vertex 53.5 1.47372 0
    endloop
  endfacet
  facet normal 0.587785 -0.809017 0
    outer loop
      vertex 53.5 1.47372 3.5
      vertex 53.5 1.47372 0
      vertex 55.3604 2.82541 0
    endloop
  endfacet
  facet normal 0.587785 -0.809017 0
    outer loop
      vertex 55.3604 2.82541 3.5
      vertex 53.5 1.47372 3.5
      vertex 55.3604 2.82541 0
    endloop
  endfacet
  facet normal 0.743145 -0.669131 0
    outer loop
      vertex 55.3604 2.82541 3.5
      vertex 55.3604 2.82541 0
      vertex 56.8992 4.53436 0
    endloop
  endfacet
  facet normal 0.743145 -0.669131 0
    outer loop
      vertex 56.8992 4.53436 3.5
      vertex 55.3604 2.82541 3.5
      vertex 56.8992 4.53436 0
    endloop
  endfacet
  facet normal 0.866025 -0.5 0
    outer loop
      vertex 56.8992 4.53436 3.5
      vertex 56.8992 4.53436 0
      vertex 58.049 6.5259 0
    endloop
  endfacet
  facet normal 0.866025 -0.5 0
    outer loop
      vertex 58.049 6.5259 3.5
      vertex 56.8992 4.53436 3.5
      vertex 58.049 6.5259 0
    endloop
  endfacet
  facet normal 0.951056 -0.309017 0
    outer loop
      vertex 58.049 6.5259 3.5
      vertex 58.049 6.5259 0
      vertex 58.7596 8.71297 0
    endloop
  endfacet
  facet normal 0.951056 -0.309017 0
    outer loop
      vertex 58.7596 8.71297 3.5
      vertex 58.049 6.5259 3.5
      vertex 58.7596 8.71297 0
    endloop
  endfacet
  facet normal 0.994522 -0.104528 0
    outer loop
      vertex 58.7596 8.71297 3.5
      vertex 58.7596 8.71297 0
      vertex 59 11 0
    endloop
  endfacet
  facet normal 0.994522 -0.104528 0
    outer loop
      vertex 59 11 3.5
      vertex 58.7596 8.71297 3.5
      vertex 59 11 0
    endloop
  endfacet
  facet normal 1 0 0
    outer loop
      vertex 59 11 3.5
      vertex 59 11 0
      vertex 59 48 0
    endloop
  endfacet
  facet normal 1 0 0
    outer loop
      vertex 59 48 3.5
      vertex 59 11 3.5
      vertex 59 48 0
    endloop
  endfacet
  facet normal 0.994522 0.104528 0
    outer loop
      vertex 59 48 0
      vertex 58.7596 50.287 0
      vertex 58.7596 50.287 3.5
    endloop
  endfacet
  facet normal 0.994522 0.104528 0
    outer loop
      vertex 59 48 3.5
      vertex 59 48 0
      vertex 58.7596 50.287 3.5
    endloop
  endfacet
  facet normal 0.951056 0.309017 0
    outer loop
      vertex 58.7596 50.287 0
      vertex 58.049 52.4741 0
      vertex 58.049 52.4741 3.5
    endloop
  endfacet
  facet normal 0.951056 0.309017 0
    outer loop
      vertex 58.7596 50.287 3.5
      vertex 58.7596 50.287 0
      vertex 58.049 52.4741 3.5
    endloop
  endfacet
  facet normal 0.866025 0.5 0
    outer loop
      vertex 58.049 52.4741 0
      vertex 56.8992 54.4656 0
      vertex 56.8992 54.4656 3.5
    endloop
  endfacet
  facet normal 0.866025 0.5 0
    outer loop
      vertex 58.049 52.4741 3.5
      vertex 58.049 52.4741 0
      vertex 56.8992 54.4656 3.5
    endloop
  endfacet
  facet normal 0.743145 0.669131 0
    outer loop
      vertex 56.8992 54.4656 0
      vertex 55.3604 56.1746 0
      vertex 55.3604 56.1746 3.5
    endloop
  endfacet
  facet normal 0.743145 0.669131 0
    outer loop
      vertex 56.8992 54.4656 3.5
      vertex 56.8992 54.4656 0
      vertex 55.3604 56.1746 3.5
    endloop
  endfacet
  facet normal 0.587785 0.809017 0
    outer loop
      vertex 53.5 57.5263 0
      vertex 53.5 57.5263 3.5
      vertex 55.3604 56.1746 0
    endloop
  endfacet
  facet normal 0.587785 0.809017 0
    outer loop
      vertex 55.3604 56.1746 0
      vertex 53.5 57.5263 3.5
      vertex 55.3604 56.1746 3.5
    endloop
  endfacet
  facet normal 0.406737 0.913545 0
    outer loop
      vertex 51.3992 58.4616 0
      vertex 51.3992 58.4616 3.5
      vertex 53.5 57.5263 0
    endloop
  endfacet
  facet normal 0.406737 0.913545 0
    outer loop
      vertex 53.5 57.5263 0
      vertex 51.3992 58.4616 3.5
      vertex 53.5 57.5263 3.5
    endloop
  endfacet
  facet normal 0.207912 0.978148 0
    outer loop
      vertex 49.1498 58.9397 0
      vertex 49.1498 58.9397 3.5
      vertex 51.3992 58.4616 0
    endloop
  endfacet
  facet normal 0.207912 0.978148 0
    outer loop
      vertex 51.3992 58.4616 0
      vertex 49.1498 58.9397 3.5
      vertex 51.3992 58.4616 3.5
    endloop
  endfacet
  facet normal 0 1 0
    outer loop
      vertex 48 58.9397 0
      vertex 48 58.9397 3.5
      vertex 49.1498 58.9397 0
    endloop
  endfacet
  facet normal 0 1 0
    outer loop
      vertex 49.1498 58.9397 0
      vertex 48 58.9397 3.5
      vertex 49.1498 58.9397 3.5
    endloop
  endfacet
  facet normal 1 0 0
    outer loop
      vertex 48 59 0
      vertex 48 59 3.5
      vertex 48 58.9397 3.5
    endloop
  endfacet
  facet normal 1 0 0
    outer loop
      vertex 48 58.9397 0
      vertex 48 59 0
      vertex 48 58.9397 3.5
    endloop
  endfacet
  facet normal 0 1 0
    outer loop
      vertex 11 59 0
      vertex 11 59 3.5
      vertex 48 59 0
    endloop
  endfacet
  facet normal 0 1 0
    outer loop
      vertex 48 59 0
      vertex 11 59 3.5
      vertex 48 59 3.5
    endloop
  endfacet
  facet normal -1 0 0
    outer loop
      vertex 11 59 3.5
      vertex 11 59 0
      vertex 11 58.9397 3.5
    endloop
  endfacet
  facet normal -1 0 0
    outer loop
      vertex 11 58.9397 3.5
      vertex 11 59 0
      vertex 11 58.9397 0
    endloop
  endfacet
  facet normal 0 1 0
    outer loop
      vertex 9.85019 58.9397 0
      vertex 9.85019 58.9397 3.5
      vertex 11 58.9397 0
    endloop
  endfacet
  facet normal 0 1 0
    outer loop
      vertex 11 58.9397 0
      vertex 9.85019 58.9397 3.5
      vertex 11 58.9397 3.5
    endloop
  endfacet
  facet normal -0.207912 0.978148 0
    outer loop
      vertex 7.60081 58.4616 0
      vertex 7.60081 58.4616 3.5
      vertex 9.85019 58.9397 0
    endloop
  endfacet
  facet normal -0.207912 0.978148 0
    outer loop
      vertex 9.85019 58.9397 0
      vertex 7.60081 58.4616 3.5
      vertex 9.85019 58.9397 3.5
    endloop
  endfacet
  facet normal -0.406737 0.913545 0
    outer loop
      vertex 5.5 57.5263 0
      vertex 5.5 57.5263 3.5
      vertex 7.60081 58.4616 0
    endloop
  endfacet
  facet normal -0.406737 0.913545 0
    outer loop
      vertex 7.60081 58.4616 0
      vertex 5.5 57.5263 3.5
      vertex 7.60081 58.4616 3.5
    endloop
  endfacet
  facet normal -0.587785 0.809017 0
    outer loop
      vertex 3.63956 56.1746 0
      vertex 3.63956 56.1746 3.5
      vertex 5.5 57.5263 0
    endloop
  endfacet
  facet normal -0.587785 0.809017 0
    outer loop
      vertex 5.5 57.5263 0
      vertex 3.63956 56.1746 3.5
      vertex 5.5 57.5263 3.5
    endloop
  endfacet
  facet normal -0.743145 0.669131 0
    outer loop
      vertex 2.10081 54.4656 0
      vertex 2.10081 54.4656 3.5
      vertex 3.63956 56.1746 0
    endloop
  endfacet
  facet normal -0.743145 0.669131 0
    outer loop
      vertex 3.63956 56.1746 0
      vertex 2.10081 54.4656 3.5
      vertex 3.63956 56.1746 3.5
    endloop
  endfacet
  facet normal -0.866025 0.5 0
    outer loop
      vertex 0.951 52.4741 0
      vertex 0.951 52.4741 3.5
      vertex 2.10081 54.4656 0
    endloop
  endfacet
  facet normal -0.866025 0.5 0
    outer loop
      vertex 2.10081 54.4656 0
      vertex 0.951 52.4741 3.5
      vertex 2.10081 54.4656 3.5
    endloop
  endfacet
  facet normal -0.951056 0.309017 0
    outer loop
      vertex 0.240376 50.287 0
      vertex 0.240376 50.287 3.5
      vertex 0.951 52.4741 0
    endloop
  endfacet
  facet normal -0.951056 0.309017 0
    outer loop
      vertex 0.951 52.4741 0
      vertex 0.240376 50.287 3.5
      vertex 0.951 52.4741 3.5
    endloop
  endfacet
  facet normal 0.885456 -0.464723 0
    outer loop
      vertex 8.00596 13.6525 0
      vertex 8.00596 13.6525 3.5
      vertex 7.11623 11.9573 3.5
    endloop
  endfacet
  facet normal 0.885456 -0.464723 0
    outer loop
      vertex 7.11623 11.9573 0
      vertex 8.00596 13.6525 0
      vertex 7.11623 11.9573 3.5
    endloop
  endfacet
  facet normal 1 0 0
    outer loop
      vertex 7.11623 11.9573 0
      vertex 7.11623 11.9573 3.5
      vertex 7.11623 10.0427 3.5
    endloop
  endfacet
  facet normal 1 0 0
    outer loop
      vertex 7.11623 10.0427 0
      vertex 7.11623 11.9573 0
      vertex 7.11623 10.0427 3.5
    endloop
  endfacet
  facet normal 0.568065 -0.822984 0
    outer loop
      vertex 9.58158 14.7401 0
      vertex 9.58158 14.7401 3.5
      vertex 8.00596 13.6525 3.5
    endloop
  endfacet
  facet normal 0.568065 -0.822984 0
    outer loop
      vertex 8.00596 13.6525 0
      vertex 9.58158 14.7401 0
      vertex 8.00596 13.6525 3.5
    endloop
  endfacet
  facet normal 0.120536 -0.992709 0
    outer loop
      vertex 11.4821 14.9708 0
      vertex 11.4821 14.9708 3.5
      vertex 9.58158 14.7401 3.5
    endloop
  endfacet
  facet normal 0.120536 -0.992709 0
    outer loop
      vertex 9.58158 14.7401 0
      vertex 11.4821 14.9708 0
      vertex 9.58158 14.7401 3.5
    endloop
  endfacet
  facet normal -0.354605 -0.935016 0
    outer loop
      vertex 13.2723 14.2919 0
      vertex 13.2723 14.2919 3.5
      vertex 11.4821 14.9708 3.5
    endloop
  endfacet
  facet normal -0.354605 -0.935016 0
    outer loop
      vertex 11.4821 14.9708 0
      vertex 13.2723 14.2919 0
      vertex 11.4821 14.9708 3.5
    endloop
  endfacet
  facet normal -0.748511 -0.663123 0
    outer loop
      vertex 14.5418 12.8589 3.5
      vertex 13.2723 14.2919 3.5
      vertex 14.5418 12.8589 0
    endloop
  endfacet
  facet normal -0.748511 -0.663123 0
    outer loop
      vertex 14.5418 12.8589 0
      vertex 13.2723 14.2919 3.5
      vertex 13.2723 14.2919 0
    endloop
  endfacet
  facet normal -0.970942 -0.239316 0
    outer loop
      vertex 15 11 3.5
      vertex 14.5418 12.8589 3.5
      vertex 15 11 0
    endloop
  endfacet
  facet normal -0.970942 -0.239316 0
    outer loop
      vertex 15 11 0
      vertex 14.5418 12.8589 3.5
      vertex 14.5418 12.8589 0
    endloop
  endfacet
  facet normal -0.970942 0.239316 0
    outer loop
      vertex 15 11 3.5
      vertex 15 11 0
      vertex 14.5418 9.14111 3.5
    endloop
  endfacet
  facet normal -0.970942 0.239316 0
    outer loop
      vertex 14.5418 9.14111 3.5
      vertex 15 11 0
      vertex 14.5418 9.14111 0
    endloop
  endfacet
  facet normal -0.748511 0.663123 0
    outer loop
      vertex 14.5418 9.14111 3.5
      vertex 14.5418 9.14111 0
      vertex 13.2723 7.70806 3.5
    endloop
  endfacet
  facet normal -0.748511 0.663123 0
    outer loop
      vertex 13.2723 7.70806 3.5
      vertex 14.5418 9.14111 0
      vertex 13.2723 7.70806 0
    endloop
  endfacet
  facet normal -0.354605 0.935016 0
    outer loop
      vertex 13.2723 7.70806 3.5
      vertex 13.2723 7.70806 0
      vertex 11.4821 7.02916 3.5
    endloop
  endfacet
  facet normal -0.354605 0.935016 0
    outer loop
      vertex 11.4821 7.02916 3.5
      vertex 13.2723 7.70806 0
      vertex 11.4821 7.02916 0
    endloop
  endfacet
  facet normal 0.120536 0.992709 0
    outer loop
      vertex 11.4821 7.02916 3.5
      vertex 11.4821 7.02916 0
      vertex 9.58158 7.25993 3.5
    endloop
  endfacet
  facet normal 0.120536 0.992709 0
    outer loop
      vertex 9.58158 7.25993 3.5
      vertex 11.4821 7.02916 0
      vertex 9.58158 7.25993 0
    endloop
  endfacet
  facet normal 0.568065 0.822984 0
    outer loop
      vertex 9.58158 7.25993 3.5
      vertex 9.58158 7.25993 0
      vertex 8.00596 8.34751 3.5
    endloop
  endfacet
  facet normal 0.568065 0.822984 0
    outer loop
      vertex 8.00596 8.34751 3.5
      vertex 9.58158 7.25993 0
      vertex 8.00596 8.34751 0
    endloop
  endfacet
  facet normal 0.885456 0.464723 0
    outer loop
      vertex 7.11623 10.0427 3.5
      vertex 8.00596 8.34751 3.5
      vertex 8.00596 8.34751 0
    endloop
  endfacet
  facet normal 0.885456 0.464723 0
    outer loop
      vertex 7.11623 10.0427 0
      vertex 7.11623 10.0427 3.5
      vertex 8.00596 8.34751 0
    endloop
  endfacet
  facet normal 0.885456 -0.464723 0
    outer loop
      vertex 8.00596 50.6525 0
      vertex 8.00596 50.6525 3.5
      vertex 7.11623 48.9573 3.5
    endloop
  endfacet
  facet normal 0.885456 -0.464723 0
    outer loop
      vertex 7.11623 48.9573 0
      vertex 8.00596 50.6525 0
      vertex 7.11623 48.9573 3.5
    endloop
  endfacet
  facet normal 1 0 0
    outer loop
      vertex 7.11623 48.9573 0
      vertex 7.11623 48.9573 3.5
      vertex 7.11623 47.0427 3.5
    endloop
  endfacet
  facet normal 1 0 0
    outer loop
      vertex 7.11623 47.0427 0
      vertex 7.11623 48.9573 0
      vertex 7.11623 47.0427 3.5
    endloop
  endfacet
  facet normal 0.568065 -0.822984 0
    outer loop
      vertex 9.58158 51.7401 0
      vertex 9.58158 51.7401 3.5
      vertex 8.00596 50.6525 3.5
    endloop
  endfacet
  facet normal 0.568065 -0.822984 0
    outer loop
      vertex 8.00596 50.6525 0
      vertex 9.58158 51.7401 0
      vertex 8.00596 50.6525 3.5
    endloop
  endfacet
  facet normal 0.120536 -0.992709 0
    outer loop
      vertex 11.4821 51.9708 0
      vertex 11.4821 51.9708 3.5
      vertex 9.58158 51.7401 3.5
    endloop
  endfacet
  facet normal 0.120536 -0.992709 0
    outer loop
      vertex 9.58158 51.7401 0
      vertex 11.4821 51.9708 0
      vertex 9.58158 51.7401 3.5
    endloop
  endfacet
  facet normal -0.354605 -0.935016 0
    outer loop
      vertex 13.2723 51.2919 0
      vertex 13.2723 51.2919 3.5
      vertex 11.4821 51.9708 3.5
    endloop
  endfacet
  facet normal -0.354605 -0.935016 0
    outer loop
      vertex 11.4821 51.9708 0
      vertex 13.2723 51.2919 0
      vertex 11.4821 51.9708 3.5
    endloop
  endfacet
  facet normal -0.748511 -0.663123 0
    outer loop
      vertex 14.5418 49.8589 3.5
      vertex 13.2723 51.2919 3.5
      vertex 14.5418 49.8589 0
    endloop
  endfacet
  facet normal -0.748511 -0.663123 0
    outer loop
      vertex 14.5418 49.8589 0
      vertex 13.2723 51.2919 3.5
      vertex 13.2723 51.2919 0
    endloop
  endfacet
  facet normal -0.970942 -0.239316 0
    outer loop
      vertex 15 48 3.5
      vertex 14.5418 49.8589 3.5
      vertex 15 48 0
    endloop
  endfacet
  facet normal -0.970942 -0.239316 0
    outer loop
      vertex 15 48 0
      vertex 14.5418 49.8589 3.5
      vertex 14.5418 49.8589 0
    endloop
  endfacet
  facet normal -0.970942 0.239316 0
    outer loop
      vertex 15 48 3.5
      vertex 15 48 0
      vertex 14.5418 46.1411 3.5
    endloop
  endfacet
  facet normal -0.970942 0.239316 0
    outer loop
      vertex 14.5418 46.1411 3.5
      vertex 15 48 0
      vertex 14.5418 46.1411 0
    endloop
  endfacet
  facet normal -0.748511 0.663123 0
    outer loop
      vertex 14.5418 46.1411 3.5
      vertex 14.5418 46.1411 0
      vertex 13.2723 44.7081 3.5
    endloop
  endfacet
  facet normal -0.748511 0.663123 0
    outer loop
      vertex 13.2723 44.7081 3.5
      vertex 14.5418 46.1411 0
      vertex 13.2723 44.7081 0
    endloop
  endfacet
  facet normal -0.354605 0.935016 0
    outer loop
      vertex 13.2723 44.7081 3.5
      vertex 13.2723 44.7081 0
      vertex 11.4821 44.0292 3.5
    endloop
  endfacet
  facet normal -0.354605 0.935016 0
    outer loop
      vertex 11.4821 44.0292 3.5
      vertex 13.2723 44.7081 0
      vertex 11.4821 44.0292 0
    endloop
  endfacet
  facet normal 0.120536 0.992709 0
    outer loop
      vertex 11.4821 44.0292 3.5
      vertex 11.4821 44.0292 0
      vertex 9.58158 44.2599 3.5
    endloop
  endfacet
  facet normal 0.120536 0.992709 0
    outer loop
      vertex 9.58158 44.2599 3.5
      vertex 11.4821 44.0292 0
      vertex 9.58158 44.2599 0
    endloop
  endfacet
  facet normal 0.568065 0.822984 0
    outer loop
      vertex 9.58158 44.2599 3.5
      vertex 9.58158 44.2599 0
      vertex 8.00596 45.3475 3.5
    endloop
  endfacet
  facet normal 0.568065 0.822984 0
    outer loop
      vertex 8.00596 45.3475 3.5
      vertex 9.58158 44.2599 0
      vertex 8.00596 45.3475 0
    endloop
  endfacet
  facet normal 0.885456 0.464723 0
    outer loop
      vertex 7.11623 47.0427 3.5
      vertex 8.00596 45.3475 3.5
      vertex 8.00596 45.3475 0
    endloop
  endfacet
  facet normal 0.885456 0.464723 0
    outer loop
      vertex 7.11623 47.0427 0
      vertex 7.11623 47.0427 3.5
      vertex 8.00596 45.3475 0
    endloop
  endfacet
  facet normal 1 0 0
    outer loop
      vertex 44.1162 11.9573 0
      vertex 44.1162 11.9573 3.5
      vertex 44.1162 10.0427 3.5
    endloop
  endfacet
  facet normal 1 0 0
    outer loop
      vertex 44.1162 10.0427 0
      vertex 44.1162 11.9573 0
      vertex 44.1162 10.0427 3.5
    endloop
  endfacet
  facet normal 0.885456 -0.464723 0
    outer loop
      vertex 45.006 13.6525 0
      vertex 45.006 13.6525 3.5
      vertex 44.1162 11.9573 3.5
    endloop
  endfacet
  facet normal 0.885456 -0.464723 0
    outer loop
      vertex 44.1162 11.9573 0
      vertex 45.006 13.6525 0
      vertex 44.1162 11.9573 3.5
    endloop
  endfacet
  facet normal 0.568065 -0.822984 0
    outer loop
      vertex 46.5816 14.7401 0
      vertex 46.5816 14.7401 3.5
      vertex 45.006 13.6525 3.5
    endloop
  endfacet
  facet normal 0.568065 -0.822984 0
    outer loop
      vertex 45.006 13.6525 0
      vertex 46.5816 14.7401 0
      vertex 45.006 13.6525 3.5
    endloop
  endfacet
  facet normal 0.120536 -0.992709 0
    outer loop
      vertex 48.4821 14.9708 0
      vertex 48.4821 14.9708 3.5
      vertex 46.5816 14.7401 3.5
    endloop
  endfacet
  facet normal 0.120536 -0.992709 0
    outer loop
      vertex 46.5816 14.7401 0
      vertex 48.4821 14.9708 0
      vertex 46.5816 14.7401 3.5
    endloop
  endfacet
  facet normal -0.354605 -0.935016 0
    outer loop
      vertex 50.2723 14.2919 0
      vertex 50.2723 14.2919 3.5
      vertex 48.4821 14.9708 3.5
    endloop
  endfacet
  facet normal -0.354605 -0.935016 0
    outer loop
      vertex 48.4821 14.9708 0
      vertex 50.2723 14.2919 0
      vertex 48.4821 14.9708 3.5
    endloop
  endfacet
  facet normal -0.748511 -0.663123 0
    outer loop
      vertex 51.5418 12.8589 3.5
      vertex 50.2723 14.2919 3.5
      vertex 51.5418 12.8589 0
    endloop
  endfacet
  facet normal -0.748511 -0.663123 0
    outer loop
      vertex 51.5418 12.8589 0
      vertex 50.2723 14.2919 3.5
      vertex 50.2723 14.2919 0
    endloop
  endfacet
  facet normal -0.970942 -0.239316 0
    outer loop
      vertex 52 11 3.5
      vertex 51.5418 12.8589 3.5
      vertex 52 11 0
    endloop
  endfacet
  facet normal -0.970942 -0.239316 0
    outer loop
      vertex 52 11 0
      vertex 51.5418 12.8589 3.5
      vertex 51.5418 12.8589 0
    endloop
  endfacet
  facet normal -0.970942 0.239316 0
    outer loop
      vertex 52 11 3.5
      vertex 52 11 0
      vertex 51.5418 9.14111 3.5
    endloop
  endfacet
  facet normal -0.970942 0.239316 0
    outer loop
      vertex 51.5418 9.14111 3.5
      vertex 52 11 0
      vertex 51.5418 9.14111 0
    endloop
  endfacet
  facet normal -0.748511 0.663123 0
    outer loop
      vertex 51.5418 9.14111 3.5
      vertex 51.5418 9.14111 0
      vertex 50.2723 7.70806 3.5
    endloop
  endfacet
  facet normal -0.748511 0.663123 0
    outer loop
      vertex 50.2723 7.70806 3.5
      vertex 51.5418 9.14111 0
      vertex 50.2723 7.70806 0
    endloop
  endfacet
  facet normal -0.354605 0.935016 0
    outer loop
      vertex 50.2723 7.70806 3.5
      vertex 50.2723 7.70806 0
      vertex 48.4821 7.02916 3.5
    endloop
  endfacet
  facet normal -0.354605 0.935016 0
    outer loop
      vertex 48.4821 7.02916 3.5
      vertex 50.2723 7.70806 0
      vertex 48.4821 7.02916 0
    endloop
  endfacet
  facet normal 0.120536 0.992709 0
    outer loop
      vertex 48.4821 7.02916 3.5
      vertex 48.4821 7.02916 0
      vertex 46.5816 7.25993 3.5
    endloop
  endfacet
  facet normal 0.120536 0.992709 0
    outer loop
      vertex 46.5816 7.25993 3.5
      vertex 48.4821 7.02916 0
      vertex 46.5816 7.25993 0
    endloop
  endfacet
  facet normal 0.568065 0.822984 0
    outer loop
      vertex 46.5816 7.25993 3.5
      vertex 46.5816 7.25993 0
      vertex 45.006 8.34751 3.5
    endloop
  endfacet
  facet normal 0.568065 0.822984 0
    outer loop
      vertex 45.006 8.34751 3.5
      vertex 46.5816 7.25993 0
      vertex 45.006 8.34751 0
    endloop
  endfacet
  facet normal 0.885456 0.464723 0
    outer loop
      vertex 44.1162 10.0427 3.5
      vertex 45.006 8.34751 3.5
      vertex 45.006 8.34751 0
    endloop
  endfacet
  facet normal 0.885456 0.464723 0
    outer loop
      vertex 44.1162 10.0427 0
      vertex 44.1162 10.0427 3.5
      vertex 45.006 8.34751 0
    endloop
  endfacet
  facet normal 0.885456 -0.464723 0
    outer loop
      vertex 45.006 50.6525 0
      vertex 45.006 50.6525 3.5
      vertex 44.1162 48.9573 3.5
    endloop
  endfacet
  facet normal 0.885456 -0.464723 0
    outer loop
      vertex 44.1162 48.9573 0
      vertex 45.006 50.6525 0
      vertex 44.1162 48.9573 3.5
    endloop
  endfacet
  facet normal 1 0 0
    outer loop
      vertex 44.1162 48.9573 0
      vertex 44.1162 48.9573 3.5
      vertex 44.1162 47.0427 3.5
    endloop
  endfacet
  facet normal 1 0 0
    outer loop
      vertex 44.1162 47.0427 0
      vertex 44.1162 48.9573 0
      vertex 44.1162 47.0427 3.5
    endloop
  endfacet
  facet normal 0.568065 -0.822984 0
    outer loop
      vertex 46.5816 51.7401 0
      vertex 46.5816 51.7401 3.5
      vertex 45.006 50.6525 3.5
    endloop
  endfacet
  facet normal 0.568065 -0.822984 0
    outer loop
      vertex 45.006 50.6525 0
      vertex 46.5816 51.7401 0
      vertex 45.006 50.6525 3.5
    endloop
  endfacet
  facet normal 0.120536 -0.992709 0
    outer loop
      vertex 48.4821 51.9708 0
      vertex 48.4821 51.9708 3.5
      vertex 46.5816 51.7401 3.5
    endloop
  endfacet
  facet normal 0.120536 -0.992709 0
    outer loop
      vertex 46.5816 51.7401 0
      vertex 48.4821 51.9708 0
      vertex 46.5816 51.7401 3.5
    endloop
  endfacet
  facet normal -0.354605 -0.935016 0
    outer loop
      vertex 50.2723 51.2919 0
      vertex 50.2723 51.2919 3.5
      vertex 48.4821 51.9708 3.5
    endloop
  endfacet
  facet normal -0.354605 -0.935016 0
    outer loop
      vertex 48.4821 51.9708 0
      vertex 50.2723 51.2919 0
      vertex 48.4821 51.9708 3.5
    endloop
  endfacet
  facet normal -0.748511 -0.663123 0
    outer loop
      vertex 51.5418 49.8589 3.5
      vertex 50.2723 51.2919 3.5
      vertex 51.5418 49.8589 0
    endloop
  endfacet
  facet normal -0.748511 -0.663123 0
    outer loop
      vertex 51.5418 49.8589 0
      vertex 50.2723 51.2919 3.5
      vertex 50.2723 51.2919 0
    endloop
  endfacet
  facet normal -0.970942 -0.239316 0
    outer loop
      vertex 52 48 3.5
      vertex 51.5418 49.8589 3.5
      vertex 52 48 0
    endloop
  endfacet
  facet normal -0.970942 -0.239316 0
    outer loop
      vertex 52 48 0
      vertex 51.5418 49.8589 3.5
      vertex 51.5418 49.8589 0
    endloop
  endfacet
  facet normal -0.970942 0.239316 0
    outer loop
      vertex 52 48 3.5
      vertex 52 48 0
      vertex 51.5418 46.1411 3.5
    endloop
  endfacet
  facet normal -0.970942 0.239316 0
    outer loop
      vertex 51.5418 46.1411 3.5
      vertex 52 48 0
      vertex 51.5418 46.1411 0
    endloop
  endfacet
  facet normal -0.748511 0.663123 0
    outer loop
      vertex 51.5418 46.1411 3.5
      vertex 51.5418 46.1411 0
      vertex 50.2723 44.7081 3.5
    endloop
  endfacet
  facet normal -0.748511 0.663123 0
    outer loop
      vertex 50.2723 44.7081 3.5
      vertex 51.5418 46.1411 0
      vertex 50.2723 44.7081 0
    endloop
  endfacet
  facet normal -0.354605 0.935016 0
    outer loop
      vertex 50.2723 44.7081 3.5
      vertex 50.2723 44.7081 0
      vertex 48.4821 44.0292 3.5
    endloop
  endfacet
  facet normal -0.354605 0.935016 0
    outer loop
      vertex 48.4821 44.0292 3.5
      vertex 50.2723 44.7081 0
      vertex 48.4821 44.0292 0
    endloop
  endfacet
  facet normal 0.120536 0.992709 0
    outer loop
      vertex 48.4821 44.0292 3.5
      vertex 48.4821 44.0292 0
      vertex 46.5816 44.2599 3.5
    endloop
  endfacet
  facet normal 0.120536 0.992709 0
    outer loop
      vertex 46.5816 44.2599 3.5
      vertex 48.4821 44.0292 0
      vertex 46.5816 44.2599 0
    endloop
  endfacet
  facet normal 0.568065 0.822984 0
    outer loop
      vertex 46.5816 44.2599 3.5
      vertex 46.5816 44.2599 0
      vertex 45.006 45.3475 3.5
    endloop
  endfacet
  facet normal 0.568065 0.822984 0
    outer loop
      vertex 45.006 45.3475 3.5
      vertex 46.5816 44.2599 0
      vertex 45.006 45.3475 0
    endloop
  endfacet
  facet normal 0.885456 0.464723 0
    outer loop
      vertex 44.1162 47.0427 3.5
      vertex 45.006 45.3475 3.5
      vertex 45.006 45.3475 0
    endloop
  endfacet
  facet normal 0.885456 0.464723 0
    outer loop
      vertex 44.1162 47.0427 0
      vertex 44.1162 47.0427 3.5
      vertex 45.006 45.3475 0
    endloop
  endfacet
  facet normal 1 0 0
    outer loop
      vertex 33.5 0 11.5
      vertex 33.5 0 3.5
      vertex 33.5 15 3.5
    endloop
  endfacet
  facet normal 1 0 0
    outer loop
      vertex 33.5 15 11.5
      vertex 33.5 0 11.5
      vertex 33.5 15 3.5
    endloop
  endfacet
  facet normal 0 1 0
    outer loop
      vertex 25.5 15 3.5
      vertex 25.5 15 11.5
      vertex 33.5 15 3.5
    endloop
  endfacet
  facet normal 0 1 0
    outer loop
      vertex 33.5 15 3.5
      vertex 25.5 15 11.5
      vertex 25.6162 15 11.5
    endloop
  endfacet
  facet normal 0 1 0
    outer loop
      vertex 28.4887 15 10.7653
      vertex 25.6162 15 11.5
      vertex 28.4887 15 11.5
    endloop
  endfacet
  facet normal 0 1 0
    outer loop
      vertex 33.5 15 3.5
      vertex 25.6162 15 11.5
      vertex 28.4887 15 10.7653
    endloop
  endfacet
  facet normal 0 1 0
    outer loop
      vertex 33.5 15 3.5
      vertex 29.8863 15 10.3112
      vertex 30.75 15 11.5
    endloop
  endfacet
  facet normal 0 1 0
    outer loop
      vertex 33.5 15 3.5
      vertex 30.75 15 11.5
      vertex 33.5 15 11.5
    endloop
  endfacet
  facet normal 0 1 0
    outer loop
      vertex 29.8863 15 10.3112
      vertex 33.5 15 3.5
      vertex 28.4887 15 10.7653
    endloop
  endfacet
  facet normal -1 0 0
    outer loop
      vertex 25.5 0 3.5
      vertex 25.5 0 11.5
      vertex 25.5 15 3.5
    endloop
  endfacet
  facet normal -1 0 0
    outer loop
      vertex 25.5 15 3.5
      vertex 25.5 0 11.5
      vertex 25.5 15 11.5
    endloop
  endfacet
  facet normal 0 0 1
    outer loop
      vertex 25.5 15 11.5
      vertex 25.5 0 11.5
      vertex 25.6162 0 11.5
    endloop
  endfacet
  facet normal 0 0 1
    outer loop
      vertex 25.6162 15 11.5
      vertex 25.5 15 11.5
      vertex 25.6162 0 11.5
    endloop
  endfacet
  facet normal -1 0 0
    outer loop
      vertex 25.6162 -2.12555e-016 10.5427
      vertex 25.6162 2.12555e-016 12.4573
      vertex 25.6162 0 11.5
    endloop
  endfacet
  facet normal -1 0 0
    outer loop
      vertex 25.6162 -2.12555e-016 10.5427
      vertex 25.6162 0 11.5
      vertex 25.6162 0 10.5427
    endloop
  endfacet
  facet normal -1 0 0
    outer loop
      vertex 25.6162 0 11.5
      vertex 25.6162 2.12555e-016 12.4573
      vertex 25.6162 15 12.4573
    endloop
  endfacet
  facet normal -1 0 0
    outer loop
      vertex 25.6162 0 11.5
      vertex 25.6162 15 12.4573
      vertex 25.6162 15 11.5
    endloop
  endfacet
  facet normal -0.885456 -1.03189e-016 -0.464723
    outer loop
      vertex 25.6162 -2.12555e-016 10.5427
      vertex 25.6162 0 10.5427
      vertex 26.506 -5.88971e-016 8.84751
    endloop
  endfacet
  facet normal -0.885456 -1.03189e-016 -0.464723
    outer loop
      vertex 26.506 -5.88971e-016 8.84751
      vertex 25.6162 0 10.5427
      vertex 26.506 0 8.84751
    endloop
  endfacet
  facet normal -0.568065 -1.82739e-016 -0.822984
    outer loop
      vertex 26.506 -5.88971e-016 8.84751
      vertex 26.506 0 8.84751
      vertex 28.0816 -8.30461e-016 7.75994
    endloop
  endfacet
  facet normal -0.568065 -1.82739e-016 -0.822984
    outer loop
      vertex 28.0816 -8.30461e-016 7.75994
      vertex 26.506 0 8.84751
      vertex 28.0816 0 7.75994
    endloop
  endfacet
  facet normal -0.120536 -2.20426e-016 -0.992709
    outer loop
      vertex 28.0816 -8.30461e-016 7.75994
      vertex 28.0816 0 7.75994
      vertex 29.9821 -8.81702e-016 7.52917
    endloop
  endfacet
  facet normal -0.120536 -2.20426e-016 -0.992709
    outer loop
      vertex 29.9821 -8.81702e-016 7.52917
      vertex 28.0816 0 7.75994
      vertex 29.9821 0 7.52917
    endloop
  endfacet
  facet normal 0.354605 -2.07615e-016 -0.935016
    outer loop
      vertex 29.9821 -8.81702e-016 7.52917
      vertex 29.9821 0 7.52917
      vertex 31.7723 -7.30956e-016 8.20807
    endloop
  endfacet
  facet normal 0.354605 -2.07615e-016 -0.935016
    outer loop
      vertex 31.7723 -7.30956e-016 8.20807
      vertex 29.9821 0 7.52917
      vertex 31.7723 0 8.20807
    endloop
  endfacet
  facet normal 0.748511 -1.47243e-016 -0.663123
    outer loop
      vertex 33.0418 -4.12757e-016 9.64111
      vertex 31.7723 -7.30956e-016 8.20807
      vertex 31.7723 0 8.20807
    endloop
  endfacet
  facet normal 0.748511 -1.47243e-016 -0.663123
    outer loop
      vertex 33.0418 0 9.64111
      vertex 33.0418 -4.12757e-016 9.64111
      vertex 31.7723 0 8.20807
    endloop
  endfacet
  facet normal 0.970942 -5.31388e-017 -0.239316
    outer loop
      vertex 33.5 0 11.5
      vertex 33.0418 -4.12757e-016 9.64111
      vertex 33.0418 0 9.64111
    endloop
  endfacet
  facet normal 0.970942 5.31388e-017 0.239316
    outer loop
      vertex 33.0418 15 13.3589
      vertex 33.0418 4.12757e-016 13.3589
      vertex 33.5 0 11.5
    endloop
  endfacet
  facet normal 0.970942 5.31388e-017 0.239316
    outer loop
      vertex 33.5 15 11.5
      vertex 33.0418 15 13.3589
      vertex 33.5 0 11.5
    endloop
  endfacet
  facet normal 0 1 -2.22045e-016
    outer loop
      vertex 25.6162 15 11.5
      vertex 25.6162 15 12.4573
      vertex 28.4887 15 11.5
    endloop
  endfacet
  facet normal 0 1 -2.22045e-016
    outer loop
      vertex 28.4887 15 11.5
      vertex 25.6162 15 12.4573
      vertex 26.506 15 14.1525
    endloop
  endfacet
  facet normal 0 1 -2.22045e-016
    outer loop
      vertex 28.4887 15 11.5
      vertex 26.506 15 14.1525
      vertex 28.0816 15 15.2401
    endloop
  endfacet
  facet normal 0 1 -2.22045e-016
    outer loop
      vertex 28.4887 15 12.2347
      vertex 28.0816 15 15.2401
      vertex 29.9821 15 15.4708
    endloop
  endfacet
  facet normal 0 1 -2.22045e-016
    outer loop
      vertex 29.8863 15 12.6888
      vertex 31.7723 15 14.7919
      vertex 33.0418 15 13.3589
    endloop
  endfacet
  facet normal 0 1 -2.22045e-016
    outer loop
      vertex 30.75 15 11.5
      vertex 33.0418 15 13.3589
      vertex 33.5 15 11.5
    endloop
  endfacet
  facet normal 0 1 -2.22045e-016
    outer loop
      vertex 28.4887 15 12.2347
      vertex 31.7723 15 14.7919
      vertex 29.8863 15 12.6888
    endloop
  endfacet
  facet normal 0 1 -2.22045e-016
    outer loop
      vertex 28.4887 15 12.2347
      vertex 29.9821 15 15.4708
      vertex 31.7723 15 14.7919
    endloop
  endfacet
  facet normal 0 1 -2.22045e-016
    outer loop
      vertex 28.4887 15 11.5
      vertex 28.0816 15 15.2401
      vertex 28.4887 15 12.2347
    endloop
  endfacet
  facet normal 0 1 -2.22045e-016
    outer loop
      vertex 29.8863 15 12.6888
      vertex 33.0418 15 13.3589
      vertex 30.75 15 11.5
    endloop
  endfacet
  facet normal -0.809017 1.30515e-016 0.587785
    outer loop
      vertex 30.75 4.93038e-032 11.5
      vertex 30.75 15 11.5
      vertex 29.8863 15 10.3112
    endloop
  endfacet
  facet normal -0.809017 1.30515e-016 0.587785
    outer loop
      vertex 30.75 4.93038e-032 11.5
      vertex 29.8863 15 10.3112
      vertex 29.8863 -2.63971e-016 10.3112
    endloop
  endfacet
  facet normal 0.309017 2.11177e-016 0.951057
    outer loop
      vertex 29.8863 -2.63971e-016 10.3112
      vertex 29.8863 15 10.3112
      vertex 28.4887 15 10.7653
    endloop
  endfacet
  facet normal 0.309017 2.11177e-016 0.951057
    outer loop
      vertex 28.4887 -1.63143e-016 10.7653
      vertex 29.8863 -2.63971e-016 10.3112
      vertex 28.4887 15 10.7653
    endloop
  endfacet
  facet normal 1 0 0
    outer loop
      vertex 28.4887 15 10.7653
      vertex 28.4887 15 11.5
      vertex 28.4887 1.63143e-016 12.2347
    endloop
  endfacet
  facet normal 1 0 0
    outer loop
      vertex 28.4887 1.63143e-016 12.2347
      vertex 28.4887 15 11.5
      vertex 28.4887 15 12.2347
    endloop
  endfacet
  facet normal 1 0 0
    outer loop
      vertex 28.4887 15 10.7653
      vertex 28.4887 1.63143e-016 12.2347
      vertex 28.4887 -1.63143e-016 10.7653
    endloop
  endfacet
  facet normal -0.885456 1.03189e-016 0.464723
    outer loop
      vertex 25.6162 2.12555e-016 12.4573
      vertex 26.506 5.88971e-016 14.1525
      vertex 25.6162 15 12.4573
    endloop
  endfacet
  facet normal -0.885456 1.03189e-016 0.464723
    outer loop
      vertex 25.6162 15 12.4573
      vertex 26.506 5.88971e-016 14.1525
      vertex 26.506 15 14.1525
    endloop
  endfacet
  facet normal 0 -1 2.22045e-016
    outer loop
      vertex 25.6162 2.12555e-016 12.4573
      vertex 25.6162 -2.12555e-016 10.5427
      vertex 26.506 -5.88971e-016 8.84751
    endloop
  endfacet
  facet normal 0 -1 2.22045e-016
    outer loop
      vertex 29.9821 -8.81702e-016 7.52917
      vertex 25.6162 2.12555e-016 12.4573
      vertex 28.0816 -8.30461e-016 7.75994
    endloop
  endfacet
  facet normal 0 -1 2.22045e-016
    outer loop
      vertex 28.0816 -8.30461e-016 7.75994
      vertex 25.6162 2.12555e-016 12.4573
      vertex 26.506 -5.88971e-016 8.84751
    endloop
  endfacet
  facet normal 0 -1 2.22045e-016
    outer loop
      vertex 31.7723 -7.30956e-016 8.20807
      vertex 25.6162 2.12555e-016 12.4573
      vertex 29.9821 -8.81702e-016 7.52917
    endloop
  endfacet
  facet normal 0 -1 2.22045e-016
    outer loop
      vertex 28.4887 -1.63143e-016 10.7653
      vertex 25.6162 2.12555e-016 12.4573
      vertex 31.7723 -7.30956e-016 8.20807
    endloop
  endfacet
  facet normal 0 -1 2.22045e-016
    outer loop
      vertex 29.8863 2.63971e-016 12.6888
      vertex 30.75 4.93038e-032 11.5
      vertex 33.5 0 11.5
    endloop
  endfacet
  facet normal 0 -1 2.22045e-016
    outer loop
      vertex 31.7723 7.30956e-016 14.7919
      vertex 25.6162 2.12555e-016 12.4573
      vertex 33.0418 4.12757e-016 13.3589
    endloop
  endfacet
  facet normal 0 -1 2.22045e-016
    outer loop
      vertex 29.9821 8.81702e-016 15.4708
      vertex 25.6162 2.12555e-016 12.4573
      vertex 31.7723 7.30956e-016 14.7919
    endloop
  endfacet
  facet normal 0 -1 2.22045e-016
    outer loop
      vertex 28.0816 8.30461e-016 15.2401
      vertex 25.6162 2.12555e-016 12.4573
      vertex 29.9821 8.81702e-016 15.4708
    endloop
  endfacet
  facet normal 0 -1 2.22045e-016
    outer loop
      vertex 26.506 5.88971e-016 14.1525
      vertex 25.6162 2.12555e-016 12.4573
      vertex 28.0816 8.30461e-016 15.2401
    endloop
  endfacet
  facet normal 0 -1 2.22045e-016
    outer loop
      vertex 29.8863 -2.63971e-016 10.3112
      vertex 28.4887 -1.63143e-016 10.7653
      vertex 31.7723 -7.30956e-016 8.20807
    endloop
  endfacet
  facet normal 0 -1 2.22045e-016
    outer loop
      vertex 29.8863 2.63971e-016 12.6888
      vertex 25.6162 2.12555e-016 12.4573
      vertex 28.4887 1.63143e-016 12.2347
    endloop
  endfacet
  facet normal 0 -1 2.22045e-016
    outer loop
      vertex 30.75 4.93038e-032 11.5
      vertex 29.8863 -2.63971e-016 10.3112
      vertex 33.0418 -4.12757e-016 9.64111
    endloop
  endfacet
  facet normal 0 -1 2.22045e-016
    outer loop
      vertex 33.0418 4.12757e-016 13.3589
      vertex 25.6162 2.12555e-016 12.4573
      vertex 29.8863 2.63971e-016 12.6888
    endloop
  endfacet
  facet normal 0 -1 2.22045e-016
    outer loop
      vertex 33.5 0 11.5
      vertex 30.75 4.93038e-032 11.5
      vertex 33.0418 -4.12757e-016 9.64111
    endloop
  endfacet
  facet normal 0 -1 2.22045e-016
    outer loop
      vertex 29.8863 2.63971e-016 12.6888
      vertex 33.5 0 11.5
      vertex 33.0418 4.12757e-016 13.3589
    endloop
  endfacet
  facet normal 0 -1 2.22045e-016
    outer loop
      vertex 33.0418 -4.12757e-016 9.64111
      vertex 29.8863 -2.63971e-016 10.3112
      vertex 31.7723 -7.30956e-016 8.20807
    endloop
  endfacet
  facet normal 0 -1 2.22045e-016
    outer loop
      vertex 28.4887 -1.63143e-016 10.7653
      vertex 28.4887 1.63143e-016 12.2347
      vertex 25.6162 2.12555e-016 12.4573
    endloop
  endfacet
  facet normal 0.748511 1.47243e-016 0.663123
    outer loop
      vertex 31.7723 15 14.7919
      vertex 31.7723 7.30956e-016 14.7919
      vertex 33.0418 4.12757e-016 13.3589
    endloop
  endfacet
  facet normal 0.748511 1.47243e-016 0.663123
    outer loop
      vertex 33.0418 15 13.3589
      vertex 31.7723 15 14.7919
      vertex 33.0418 4.12757e-016 13.3589
    endloop
  endfacet
  facet normal 0.309017 -2.11177e-016 -0.951057
    outer loop
      vertex 29.8863 15 12.6888
      vertex 29.8863 2.63971e-016 12.6888
      vertex 28.4887 15 12.2347
    endloop
  endfacet
  facet normal 0.309017 -2.11177e-016 -0.951057
    outer loop
      vertex 28.4887 15 12.2347
      vertex 29.8863 2.63971e-016 12.6888
      vertex 28.4887 1.63143e-016 12.2347
    endloop
  endfacet
  facet normal -0.809017 -1.30515e-016 -0.587785
    outer loop
      vertex 30.75 15 11.5
      vertex 30.75 4.93038e-032 11.5
      vertex 29.8863 15 12.6888
    endloop
  endfacet
  facet normal -0.809017 -1.30515e-016 -0.587785
    outer loop
      vertex 29.8863 15 12.6888
      vertex 30.75 4.93038e-032 11.5
      vertex 29.8863 2.63971e-016 12.6888
    endloop
  endfacet
  facet normal 0.354605 2.07615e-016 0.935016
    outer loop
      vertex 29.9821 15 15.4708
      vertex 29.9821 8.81702e-016 15.4708
      vertex 31.7723 7.30956e-016 14.7919
    endloop
  endfacet
  facet normal 0.354605 2.07615e-016 0.935016
    outer loop
      vertex 31.7723 15 14.7919
      vertex 29.9821 15 15.4708
      vertex 31.7723 7.30956e-016 14.7919
    endloop
  endfacet
  facet normal -0.120536 2.20426e-016 0.992709
    outer loop
      vertex 28.0816 15 15.2401
      vertex 28.0816 8.30461e-016 15.2401
      vertex 29.9821 8.81702e-016 15.4708
    endloop
  endfacet
  facet normal -0.120536 2.20426e-016 0.992709
    outer loop
      vertex 29.9821 15 15.4708
      vertex 28.0816 15 15.2401
      vertex 29.9821 8.81702e-016 15.4708
    endloop
  endfacet
  facet normal -0.568065 1.82739e-016 0.822984
    outer loop
      vertex 26.506 15 14.1525
      vertex 26.506 5.88971e-016 14.1525
      vertex 28.0816 8.30461e-016 15.2401
    endloop
  endfacet
  facet normal -0.568065 1.82739e-016 0.822984
    outer loop
      vertex 28.0816 15 15.2401
      vertex 26.506 15 14.1525
      vertex 28.0816 8.30461e-016 15.2401
    endloop
  endfacet
endsolid OpenSCAD_Model
